<svg width="62" height="62" viewBox="0 0 62 62" fill="none" xmlns="http://www.w3.org/2000/svg">
<g clip-path="url(#clip0_2_24)">
<path d="M31 62C48.1208 62 62 48.1208 62 31C62 13.8792 48.1208 0 31 0C13.8792 0 0 13.8792 0 31C0 48.1208 13.8792 62 31 62Z" fill="#212121"/>
<path d="M38 18H24.6667C20.9848 18 18 20.9848 18 24.6667V38C18 41.6819 20.9848 44.6666 24.6667 44.6666H38C41.6819 44.6666 44.6666 41.6819 44.6666 38V24.6667C44.6666 20.9848 41.6819 18 38 18Z" stroke="#00DF5E" stroke-width="2" stroke-linecap="round" stroke-linejoin="round"/>
<path d="M36.6666 30.4933C36.8312 31.603 36.6416 32.7363 36.125 33.732C35.6083 34.7277 34.7908 35.5352 33.7888 36.0395C32.7868 36.5439 31.6512 36.7194 30.5437 36.5412C29.4361 36.363 28.413 35.8401 27.6197 35.0469C26.8265 34.2536 26.3036 33.2305 26.1254 32.1229C25.9472 31.0154 26.1227 29.8798 26.6271 28.8778C27.1314 27.8758 27.9389 27.0583 28.9346 26.5416C29.9303 26.025 31.0636 25.8354 32.1733 26C33.3052 26.1678 34.3531 26.6953 35.1622 27.5044C35.9713 28.3135 36.4988 29.3614 36.6666 30.4933Z" stroke="#00DF5E" stroke-width="2" stroke-linecap="round" stroke-linejoin="round"/>
<path d="M38.6667 24H38.6801" stroke="#00DF5E" stroke-width="2" stroke-linecap="round" stroke-linejoin="round"/>
</g>
<defs>
<clipPath id="clip0_2_24">
<rect width="62" height="62" fill="white"/>
</clipPath>
</defs>
</svg>
