<svg width="62" height="62" viewBox="0 0 62 62" fill="none" xmlns="http://www.w3.org/2000/svg">
<g clip-path="url(#clip0_2_18)">
<path d="M31 62C48.1208 62 62 48.1208 62 31C62 13.8792 48.1208 0 31 0C13.8792 0 0 13.8792 0 31C0 48.1208 13.8792 62 31 62Z" fill="#212121"/>
<path d="M44.5175 37.8935V41.8935C44.519 42.2648 44.443 42.6324 44.2942 42.9726C44.1454 43.3129 43.9272 43.6183 43.6536 43.8693C43.38 44.1204 43.0569 44.3115 42.7052 44.4304C42.3534 44.5494 41.9807 44.5936 41.6108 44.5602C37.508 44.1144 33.5668 42.7124 30.1042 40.4668C26.8826 38.4197 24.1513 35.6884 22.1042 32.4668C19.8508 28.9884 18.4485 25.0281 18.0108 20.9068C17.9775 20.5381 18.0213 20.1665 18.1395 19.8156C18.2577 19.4648 18.4476 19.1424 18.6972 18.869C18.9468 18.5955 19.2506 18.3771 19.5892 18.2275C19.9279 18.0779 20.2939 18.0005 20.6642 18.0001H24.6642C25.3113 17.9938 25.9386 18.2229 26.4292 18.6448C26.9198 19.0668 27.2403 19.6527 27.3308 20.2935C27.4997 21.5736 27.8128 22.8304 28.2642 24.0401C28.4436 24.5174 28.4824 25.036 28.3761 25.5347C28.2697 26.0333 28.0227 26.491 27.6642 26.8535L25.9708 28.5468C27.8689 31.8849 30.6328 34.6488 33.9708 36.5468L35.6642 34.8535C36.0267 34.495 36.4844 34.248 36.983 34.1416C37.4816 34.0353 38.0003 34.0741 38.4775 34.2535C39.6872 34.7049 40.9441 35.018 42.2242 35.1868C42.8719 35.2782 43.4634 35.6044 43.8862 36.1035C44.3091 36.6025 44.5337 37.2396 44.5175 37.8935Z" stroke="#00DF5E" stroke-width="2" stroke-linecap="round" stroke-linejoin="round"/>
</g>
<defs>
<clipPath id="clip0_2_18">
<rect width="62" height="62" fill="white"/>
</clipPath>
</defs>
</svg>
